<svg xmlns="http://www.w3.org/2000/svg" viewBox="0 0 1440 320"><path fill="#F4F6F8" fill-opacity="1" d="M0,288L30,293.3C60,299,120,309,180,272C240,235,300,149,360,133.3C420,117,480,171,540,197.3C600,224,660,224,720,202.7C780,181,840,139,900,149.3C960,160,1020,224,1080,256C1140,288,1200,288,1260,250.7C1320,213,1380,139,1410,101.3L1440,64L1440,0L1410,0C1380,0,1320,0,1260,0C1200,0,1140,0,1080,0C1020,0,960,0,900,0C840,0,780,0,720,0C660,0,600,0,540,0C480,0,420,0,360,0C300,0,240,0,180,0C120,0,60,0,30,0L0,0Z"></path></svg>